<?xml version="1.0" encoding="UTF-8"?> <svg xmlns="http://www.w3.org/2000/svg" xmlns:xlink="http://www.w3.org/1999/xlink" version="1.1" id="Capa_1" x="0px" y="0px" viewBox="0 0 1571 388" style="enable-background:new 0 0 1571 388;" xml:space="preserve"> <style type="text/css"> .st0{fill:#0D48CC;} </style> <g> <path class="st0" d="M149.3,205.4l1.3,3.2l0.6,1.6c0.2,0.5,0.5,1,0.7,1.5l1.5,3c0.5,1,1.1,2,1.7,2.9c1.1,2,2.4,3.8,3.7,5.6 c0.7,0.9,1.4,1.7,2.1,2.6l1,1.3c0.4,0.4,0.8,0.8,1.1,1.2l2.3,2.4l2.4,2.2c0.4,0.4,0.8,0.8,1.2,1.1l1.3,1c0.9,0.7,1.7,1.4,2.6,2 c3.6,2.5,7.5,4.5,11.5,6.1c4,1.5,8.2,2.4,12.4,2.9l3.1,0.2c1,0.1,2.1-0.1,3.1-0.1l1.6-0.1l1.5-0.2l1.5-0.2c0.5-0.1,1-0.2,1.5-0.3 c8.1-1.7,15.6-5.9,21.5-11.6c5.9-5.7,10.4-12.9,12.6-20.6c1.2-3.8,1.8-7.9,1.9-11.9c0.2-4-0.1-8.1-0.9-12.1 c-1.5-8-4.6-15.8-8.9-22.6c-4.4-6.8-10-12.8-16.5-16.9c-6.4-4.1-13.9-6.2-21.6-6.4c-7.7-0.2-15.5,1.4-22.8,4.5 c-14.5,6.2-26.8,18.1-32.9,32.4c-3.1,7.1-4.7,14.8-4.7,22.7c-0.1,7.8,1.3,15.8,3.9,23.3c2.6,7.5,6.5,14.6,11.3,20.9 c4.9,6.2,10.8,11.5,17.4,15.3c6.6,3.8,13.9,6,21.5,6.6s15.5-0.5,23-2.8c15.2-4.7,29.2-14.7,38.8-27.4c9.5-12.6,14.1-28.9,14.2-45.4 c0-4.1-0.2-8.3-0.7-12.4c-0.5-3.8-1.5-7.9-2.7-11.9s-2.7-7.9-4.3-11.8c-0.4-1-0.9-1.9-1.3-2.8c-0.5-0.9-0.9-1.9-1.4-2.8 c-1-1.8-1.9-3.7-3.1-5.4c-4.4-7.1-9.7-13.5-16-18.9c-0.8-0.7-1.5-1.4-2.4-2l-2.5-1.8l-2.5-1.8l-2.6-1.6c-3.6-2.1-7.3-4-11.2-5.4 c-15.5-6-33.3-6.5-49.8-1.7c-8.3,2.3-16.3,5.9-23.6,10.6c-3.7,2.3-7.2,4.9-10.4,7.9l-2.5,2.2l-2.3,2.3c-1.6,1.5-3,3.2-4.4,4.9 c-5.7,6.7-10.3,14.5-14,22.6c-1.8,4.1-3.4,8.3-4.8,12.6c-1.3,4.3-2.4,8.7-3.3,13.2c0.5-9.1,2.4-18.1,5.2-26.9 c3-8.7,7-17.2,12.4-24.9c1.4-1.9,2.7-3.9,4.2-5.6l2.3-2.7l2.4-2.6c3.2-3.5,6.8-6.6,10.6-9.5c7.6-5.7,16.1-10.3,25.1-13.6 c9-3.2,18.6-5.1,28.3-5.4s19.6,1,29,4.1c4.7,1.5,9.3,3.4,13.7,5.8l3.2,1.8l3.1,2l3.1,2c1,0.7,2,1.5,3,2.3 c7.9,6.1,14.7,13.5,20.1,21.7c1.5,2,2.6,4.2,3.9,6.3c0.7,1,1.2,2.1,1.8,3.2c0.6,1.1,1.2,2.2,1.7,3.3c2.1,4.4,4,8.9,5.6,13.6 c1.6,4.7,2.9,9.4,3.7,14.6c0.8,4.9,1.2,9.8,1.4,14.8c0.2,9.9-0.8,19.9-3.5,29.7c-2.6,9.8-7.2,19.1-13.1,27.5 c-6,8.3-13.3,15.4-21.5,21.3s-17.2,10.7-26.9,13.8c-9.7,3.2-20.2,4.7-30.7,3.9c-10.5-0.7-21-3.8-30.2-9.1 c-9.2-5.3-17-12.5-23.3-20.6s-11.2-17.2-14.5-26.9c-3.2-9.7-4.9-19.9-4.6-30.3c0.3-10.3,2.5-20.7,6.9-30.2c4.3-9.5,10.6-18,18.1-25 s16.3-12.6,25.9-16.3c9.6-3.7,20-5.6,30.5-4.9c5.2,0.4,10.5,1.4,15.5,3.1s9.8,4.1,14.2,7.1c8.7,6,15.4,14,20.4,22.7 s8.3,18.3,9.5,28.3c0.6,5,0.7,10,0.2,15.1c-0.5,5-1.6,10-3.3,14.8c-3.5,9.5-9.6,18-17.2,24.3c-7.6,6.4-17,10.7-26.9,12 c-0.6,0.1-1.2,0.2-1.8,0.2l-1.9,0.1l-1.8,0.1l-1.8-0.1c-1.2-0.1-2.5,0-3.7-0.2l-3.6-0.5c-4.8-0.9-9.4-2.4-13.8-4.5 c-4.3-2.2-8.3-4.8-11.9-7.9c-0.9-0.7-1.7-1.6-2.6-2.4l-1.3-1.2c-0.4-0.4-0.8-0.9-1.2-1.3l-2.3-2.6l-2.1-2.8c-0.3-0.5-0.7-0.9-1-1.4 l-0.9-1.5c-0.6-1-1.3-1.9-1.9-2.9c-1.1-2.1-2.3-4-3.1-6.2C151.7,214.2,150.4,209.8,149.3,205.4z"></path> <path class="st0" d="M203.8,13.4c-1.8-4.3-4.9-7.8-8.3-8.4c-3.8-0.7-7.2,1.6-9.8,5.4c-5.4,8.1-4.3,21.2-3.4,31.8 c1.2,13.8,3.6,27.4,7.1,40.4c0.5,1.9,1.5,2.8,2.6,2.9c0.5,0.7,1.1,1.1,1.7,1.3c1.9,0.4,3.1-1.4,3.5-3.8c2.1-12.1,4.2-24.2,6.4-36.3 C205.4,35.9,208.2,24,203.8,13.4z"></path> <path class="st0" d="M342.4,89.2c2.2-4.1,3-8.7,1.3-11.8c-1.8-3.4-5.8-4.6-10.3-4.2c-9.7,0.9-19.2,10-26.8,17.4 c-9.9,9.6-19,20-27,31c-1.2,1.6-1.2,3-0.6,3.8c-0.2,0.8-0.2,1.6,0.1,2.1c0.8,1.7,3,1.5,5.2,0.3c10.7-6,21.5-11.9,32.2-17.9 C326,104.5,337,99.3,342.4,89.2z"></path> <path class="st0" d="M377.7,200.2c4.2-2.1,7.5-5.4,7.9-8.8c0.5-3.8-2.1-7.1-6-9.4c-8.4-4.9-21.5-3-31.9-1.5 c-13.7,2-27.1,5.3-39.9,9.5c-1.9,0.6-2.7,1.7-2.7,2.8c-0.6,0.5-1,1.2-1.2,1.8c-0.3,1.9,1.6,3,4,3.3c12.2,1.4,24.4,2.8,36.6,4.2 C355.4,203.1,367.4,205.3,377.7,200.2z"></path> <path class="st0" d="M329,317.1c4.5,1.1,9.2,0.6,11.7-1.7c2.8-2.6,2.9-6.8,1.4-11.1c-3.3-9.1-14.6-16-23.6-21.5 c-11.8-7.2-24.2-13.3-36.8-18.2c-1.9-0.7-3.2-0.4-3.9,0.4c-0.8,0-1.6,0.2-2,0.6c-1.5,1.3-0.7,3.3,1,5.1c8.5,8.9,17,17.7,25.5,26.6 C309.9,305.1,317.8,314.4,329,317.1z"></path> <path class="st0" d="M193.3,376.8c2.2,4.1,5.6,7.3,9.1,7.6c3.8,0.4,7-2.4,9.2-6.3c4.6-8.6,2.2-21.6,0.3-32 c-2.5-13.6-6.3-26.9-11-39.5c-0.7-1.9-1.8-2.6-2.9-2.6c-0.6-0.6-1.2-1-1.8-1.1c-1.9-0.3-2.9,1.7-3.1,4.1 c-0.9,12.3-1.8,24.5-2.8,36.8C189.5,354.6,187.8,366.7,193.3,376.8z"></path> <path class="st0" d="M54.1,307.9c-1.6,4.4-1.8,9,0.3,11.9c2.3,3.1,6.4,3.8,10.8,2.8c9.5-2.2,17.7-12.5,24.3-20.8 c8.6-10.8,16.1-22.4,22.6-34.3c1-1.8,0.8-3.1,0.1-3.9c0.1-0.8,0-1.6-0.4-2.1c-1.1-1.6-3.2-1.1-5.2,0.4 c-9.8,7.4-19.7,14.7-29.5,22.1C68.3,290.4,58.1,297.1,54.1,307.9z"></path> <path class="st0" d="M12.7,191.8c-4.1,2.3-7.1,5.8-7.4,9.3c-0.3,3.8,2.5,7,6.6,9c8.7,4.4,21.6,1.7,32-0.5 c13.5-2.9,26.7-6.9,39.3-12c1.9-0.7,2.6-1.9,2.6-2.9c0.6-0.6,1-1.2,1-1.8c0.2-1.9-1.8-2.9-4.2-3c-12.3-0.6-24.6-1.3-36.8-1.9 C34.8,187.5,22.7,186.1,12.7,191.8z"></path> <path class="st0" d="M68.1,67.4c-4.4-1.6-9-1.8-11.9,0.3c-3.1,2.2-3.8,6.4-2.8,10.8C55.6,88,66,96.3,74.3,102.8 c10.8,8.6,22.4,16.2,34.3,22.6c1.8,1,3.1,0.8,3.9,0.1c0.8,0.1,1.6,0,2.1-0.4c1.6-1.1,1.1-3.2-0.4-5.2c-7.4-9.9-14.7-19.7-22.1-29.6 C85.6,81.7,78.9,71.5,68.1,67.4z"></path> <g> <g> <path class="st0" d="M601.2,241.5c1.5,2.5,2.2,5,2.2,7.5c0,3.8-1.8,7-5.4,9.5c-3.7,2.6-9.5,3.9-17.4,4l-27,0.3 c-11.4,0.1-19.1-1-23.1-3.3c-4.1-2.3-6.1-5.5-6.2-9.7c0-2.3,0.2-4.6,0.7-6.8c0.3-2.5,0.5-4.4,0.5-5.7c-0.1-8.3-2.2-21.4-6.3-39.4 l-46,0.5c-4.7,17.7-7,30.5-6.9,38.5c0,1.3,0.4,2.7,1.3,4.4c0.8,1.7,1.7,3.4,2.6,5c1.1,2,2.1,3.9,3,5.9s1.4,3.7,1.4,5.1 c0,4.1-4.2,6.3-12.6,6.3l-23.2,0.2c-9,0.1-13.5-2.3-13.6-7.2c0-2.2,0.7-4.6,2.2-7.3s3.1-5.2,4.8-7.5c1.7-2.3,2.9-3.9,3.6-4.8 c6.4-9.6,13.2-24.4,20.5-44.4s13.8-40.2,19.5-60.6s9.4-35.1,10.9-44.2c-0.4-6.3,1.6-10.6,6-13s10.6-3.6,18.5-3.7 c8.8-0.1,15.1,0.3,18.8,1c3.7,0.8,6.5,2.8,8.3,6.1c1.8,3.3,3.2,8.9,4.2,16.9c1.8,14.2,5.9,31.7,12.3,52.3 c6.4,20.7,13.5,39.4,21.2,56.3s14.3,27.3,19.8,31.4C597.9,236.9,599.7,239,601.2,241.5z M515.2,180.5 c-4.1-16.7-9.7-35.4-16.8-56.1c-2.3,4.5-5.4,12.1-9.2,22.8c-3.9,10.7-7.5,21.9-11,33.6L515.2,180.5z"></path> <path class="st0" d="M854.2,76.5c0,1.6-0.6,3.5-2,5.7c-1.3,2.2-2.7,4.4-4.1,6.5c-3,4.5-4.7,7.4-5,8.7c-1.4,5.1-2.4,15.2-3.1,30.3 c-0.7,15.1-0.9,31.6-0.7,49.2c0.2,22.3,0.8,37.4,1.8,45.1c0.1,7.8-0.3,14.3-1.2,19.6s-3,9.9-6.5,13.9c-3.5,3.9-8.9,5.9-16.3,6 c-8.1,0.1-15.1-1.6-20.9-5.2c-5.8-3.5-11.3-8.8-16.4-15.7c-5.1-6.9-12.3-17.9-21.7-33.2L743,183.8c-4.6-7.3-9.2-14.8-13.7-22.3 c-12.1-19.3-19.7-31.3-22.8-36v24.3c0.2,20.5,0.7,38.7,1.5,54.5s1.9,25.8,3.4,30.1c0.4,1.3,2.1,4.1,5.2,8.6 c1.5,2.1,2.9,4.3,4.3,6.4c1.4,2.1,2.1,4,2.1,5.7c0,4-4.4,6-13.5,6.1l-21.6,0.2c-9.4,0.1-14.1-2-14.1-6.3c0-1.8,0.5-3.7,1.7-5.7 s3-4.6,5.5-7.9c2.1-2.7,3.6-5,4.5-6.8c3-7.4,4.3-32.8,3.8-76.3c-0.2-16.8-0.7-36-1.7-57.6l-3.8-3.5c-4.4-3.6-6.6-8-6.6-13.2 c0-3.4,1.1-6.3,3.4-8.5c2.3-2.3,5.6-3.4,9.7-3.5l29.7-0.3c14.2-0.1,23.4,1.9,27.6,6.1c4.2,4.2,6.5,8.6,7,13.3 c0.5,4.7,0.9,7.5,1.3,8.4c4.3,13.5,12.8,30,25.5,49.6s25.7,37.1,39.1,52.5c0.9-15,1.3-32.5,1.1-52.5c-0.3-27.6-1.8-44.8-4.6-51.6 c-0.9-1.8-2.5-4-4.7-6.7c-2.6-3.2-4.4-5.8-5.6-7.8c-1.2-2-1.8-3.9-1.8-5.7c0-4.3,4.6-6.5,14-6.6l21.6-0.2 C849.7,70.6,854.2,72.5,854.2,76.5z"></path> <path class="st0" d="M926.3,247.7c0-2.7,1.2-6.4,3.7-11.1c0.3-1.1,0.7-2.1,1.2-3c0.4-0.9,0.8-1.8,1.2-2.7 c2.6-7.8,4.6-17.5,5.8-29.1s1.8-23.9,1.7-36.7c-0.1-13.2-0.9-25.6-2.4-37.4s-3.6-21.7-6.4-29.8c-0.4-0.9-0.8-1.8-1.2-2.7 c-0.5-0.9-0.9-1.9-1.2-3c-2.6-4.7-3.9-8.3-3.9-11c-0.1-7.6,10.1-11.5,30.4-11.7l61.6-0.6c15.7-0.2,29.1,4.2,40.3,13 c11.2,8.8,19.7,20.4,25.5,34.8s8.8,29.7,9,46.1s-2.5,31.8-8.1,46.3c-5.5,14.5-13.8,26.2-24.8,35.3c-11,9-24.3,13.6-40,13.8 l-61.6,0.6C936.5,259,926.3,255.3,926.3,247.7z M1024.5,218.6c4.1-15.5,6-33.9,5.8-55.2s-2.5-39.6-6.9-55.1s-10.4-23.1-17.9-23.1 c-3.6,0-6,0.8-7.3,2.2c-1.2,1.5-2,4.7-2.3,9.8c-1.3,19.1-1.7,41.8-1.5,68.1c0.3,30.3,1.2,51.9,2.8,64.9c0.6,5,1.5,8.3,2.7,9.7 s3.6,2.1,7.2,2.1C1014.6,241.9,1020.4,234.1,1024.5,218.6z"></path> <path class="st0" d="M1316.1,192.1c3.2,0,5.9,0.8,8,2.6s2.7,3.9,1.8,6.2c-1.9,5.2-2.9,11.9-2.8,20l0.4,14.1 c0.1,7-1.8,12.1-5.7,15.3c-3.8,3.2-9.8,4.8-17.9,4.9l-106.8,1.1c-20.4,0.2-30.6-3.5-30.7-11c0-2.7,1.2-6.4,3.7-11.1 c0.3-1.1,0.7-2.1,1.2-3c0.4-0.9,0.8-1.8,1.2-2.7c2.6-8,4.6-17.8,5.8-29.5c1.2-11.7,1.8-24.1,1.7-37.1c-0.1-12.8-0.9-25-2.4-36.7 s-3.6-21.6-6.4-29.7c-0.4-0.9-0.8-1.8-1.2-2.7c-0.5-0.9-0.9-1.9-1.2-3c-2.6-4.7-3.9-8.3-3.9-11c-0.1-7.6,10.1-11.5,30.4-11.7 l96-1c8.1-0.1,14.1,1.4,18,4.5s5.9,8.2,6,15.2l-0.1,14.1c0.1,8.1,1.1,14.8,3.2,20c0.9,2.3,0.4,4.4-1.7,6.2 c-2.1,1.8-4.7,2.8-7.9,2.8c-4.5,0-8.6-1.4-12.2-4.5c-2.9-2.5-5.1-5.6-6.6-9.4s-2.9-8.5-4.2-14.3c-1.1-4.5-2.1-7.8-2.9-10 s-1.9-3.8-3.2-4.8c-4-3.2-9.5-4.8-16.5-4.7c-6.1,0.1-11.2,1.5-15.1,4.2c-1.6,1.1-2.8,2.3-3.6,3.6c-0.8,1.3-1.7,3.2-2.8,5.7 c-4.7,15-7.2,34.9-7.5,59.6c12.4-0.3,21.7-1.5,27.8-3.5c1.6-0.6,4.6-2.7,8.9-6.3c3-2.4,5.5-4.2,7.2-5.5c1.8-1.3,3.5-1.9,5.1-1.9 c3.6,0,5.5,4.5,5.5,13.5l0.2,22.2c0.1,9.4-1.8,14.1-5.5,14.1c-1.8,0-3.7-0.7-5.8-2.1c-2.1-1.4-4.7-3.5-7.8-6.1 c-3.5-3-6-4.9-7.6-5.6c-2.7-0.9-6.5-1.7-11.4-2.5s-10.4-1.1-16.5-1.1c0.8,24.5,3.7,43.9,8.7,58.3l0.8,1.6 c0.2,0.5,0.6,1.3,1.4,2.4c0.7,0.9,1.6,1.7,2.7,2.5s1.9,1.4,2.5,1.7c2,1.6,5.1,2.8,9.4,3.6c4.2,0.8,8.6,1.1,13.1,1.1 c9.6-0.1,15.9-1.8,19.1-5.1c1.2-1.3,2.3-3,3.1-5.2c0.8-2.2,1.7-5.5,2.7-10c1.2-5.8,2.5-10.5,3.9-14.2s3.5-6.8,6.4-9.4 C1307.6,193.8,1311.6,192.2,1316.1,192.1z"></path> <path class="st0" d="M1419.1,246c-14.9-7.1-22.4-17.9-22.5-32.5c-0.1-9.2,3.5-16.5,10.9-21.9c7.3-5.4,15.8-8.1,25.3-8.2 c9.2-0.1,16.8,2.3,22.8,7.2s8.5,11.9,7.5,21.1c-0.3,4-0.5,6.7-0.5,8.1c0.1,13.5,5.8,20.2,17,20.1c5.4-0.1,9.7-1.6,12.8-4.6 c3.1-3,4.7-6.8,4.6-11.5c0-4.1-1.4-8.5-4.1-12.9c-2.7-4.5-6.7-8.8-12.2-12.9c-3.6-2.8-8-5.8-13.2-8.9c-5.2-3.1-10.3-6.1-15.4-8.9 c-12-6.9-21.5-12.9-28.7-17.8c-7.2-5-13.3-11-18.3-18.1s-7.6-15.1-7.7-24.1c-0.1-10.5,3.6-20.1,11.2-29s17.7-16,30.5-21.4 c12.7-5.4,26.3-8.1,40.7-8.2c14.1-0.1,26.7,1.7,38,5.6s20.2,9.3,26.7,16.2c6.5,7,9.7,14.9,9.8,23.7c0.1,8.5-3,15.2-9.1,20.1 c-6.2,4.9-13.3,7.4-21.4,7.5c-8.3,0.1-15.3-2.4-21.2-7.4c-5.8-5-8.6-12.1-8.3-21.3c0.5-18.9-5-28.3-16.5-28.2 c-5.4,0.1-10,2.1-13.9,6.2c-3.8,4.1-5.7,8.9-5.7,14.5c0.1,8.1,4.1,15.5,12.1,22c3.5,2.9,7.4,5.6,12,8.3c4.5,2.7,10.5,6,17.9,10.1 c12.5,6.5,22.7,12.5,30.5,17.8s14.4,11.9,19.9,19.7s8.2,16.9,8.1,27.4c-0.1,11.2-4,20.7-11.9,28.5s-18.2,13.7-30.9,17.7 c-12.8,4-26.4,6.1-41,6.2C1452.7,256.5,1434,253.1,1419.1,246z"></path> </g> </g> <g> <path class="st0" d="M424.2,303.6h3l11.6,28.4H435l-3.2-8.3h-12.2l-3.2,8.3h-3.8L424.2,303.6z M430.7,320.9l-5-13.1l-5.1,13.1 H430.7z"></path> <path class="st0" d="M459.4,309.6c-0.3-0.4-0.7-0.7-1.3-1.1c-0.5-0.3-1.1-0.7-1.8-0.9s-1.4-0.5-2.2-0.7c-0.8-0.2-1.6-0.3-2.5-0.3 c-2.2,0-3.8,0.4-4.8,1.2s-1.6,2-1.6,3.4c0,1,0.3,1.8,0.8,2.4s1.4,1.1,2.5,1.4c1.1,0.4,2.5,0.8,4.2,1.2c2,0.4,3.7,0.9,5.1,1.6 s2.5,1.4,3.3,2.5c0.8,1,1.2,2.4,1.2,4.1c0,1.4-0.3,2.5-0.8,3.5s-1.2,1.8-2.2,2.5c-0.9,0.7-2,1.1-3.3,1.4s-2.6,0.5-4.1,0.5 c-1.4,0-2.9-0.2-4.2-0.5c-1.4-0.3-2.7-0.8-3.9-1.3c-1.2-0.6-2.4-1.3-3.4-2.2l1.7-3c0.4,0.5,1,0.9,1.7,1.3s1.5,0.8,2.3,1.2 c0.9,0.4,1.8,0.7,2.8,0.9c1,0.2,2.1,0.3,3.1,0.3c2,0,3.6-0.4,4.7-1.1s1.7-1.8,1.7-3.2c0-1.1-0.3-1.9-0.9-2.6 c-0.6-0.6-1.6-1.2-2.8-1.6c-1.2-0.4-2.7-0.9-4.5-1.3c-1.9-0.5-3.5-1-4.8-1.6s-2.3-1.3-2.9-2.3c-0.7-0.9-1-2.1-1-3.6 c0-1.8,0.4-3.3,1.3-4.6s2.1-2.2,3.6-2.8c1.5-0.6,3.3-1,5.2-1c1.3,0,2.5,0.1,3.6,0.4s2.1,0.6,3.1,1.1s1.8,1.1,2.6,1.7L459.4,309.6z "></path> <path class="st0" d="M479.1,332.2c-2,0-3.8-0.4-5.4-1.2c-1.6-0.8-3-1.9-4.2-3.3s-2.1-2.9-2.7-4.6s-1-3.5-1-5.3 c0-1.9,0.3-3.7,1-5.4c0.7-1.7,1.6-3.3,2.8-4.6c1.2-1.3,2.6-2.4,4.3-3.2c1.6-0.8,3.4-1.2,5.3-1.2c2,0,3.8,0.4,5.4,1.2 c1.6,0.8,3,1.9,4.2,3.3s2.1,2.9,2.7,4.6s1,3.5,1,5.2c0,1.9-0.3,3.7-1,5.4c-0.7,1.7-1.6,3.3-2.8,4.6c-1.2,1.3-2.6,2.4-4.3,3.2 C482.8,331.9,481,332.2,479.1,332.2z M469.4,317.8c0,1.4,0.2,2.8,0.7,4.2c0.5,1.3,1.1,2.5,2,3.6c0.9,1,1.9,1.9,3.1,2.5 s2.5,0.9,4,0.9s2.9-0.3,4.1-1c1.2-0.6,2.2-1.5,3.1-2.6c0.8-1.1,1.5-2.3,1.9-3.6c0.4-1.3,0.7-2.7,0.7-4c0-1.4-0.2-2.8-0.7-4.2 c-0.5-1.3-1.1-2.5-2-3.6s-1.9-1.9-3.1-2.5s-2.5-0.9-3.9-0.9c-1.5,0-2.9,0.3-4.1,0.9s-2.2,1.5-3.1,2.5c-0.8,1.1-1.5,2.3-1.9,3.6 C469.6,315.1,469.4,316.4,469.4,317.8z"></path> <path class="st0" d="M496.2,317.6c0-1.7,0.3-3.4,0.9-5.1s1.5-3.2,2.6-4.6c1.2-1.4,2.6-2.5,4.3-3.3c1.7-0.8,3.6-1.2,5.7-1.2 c2.5,0,4.7,0.6,6.5,1.7c1.8,1.2,3.2,2.7,4,4.5l-2.8,1.8c-0.6-1.2-1.3-2.2-2.1-2.9c-0.9-0.7-1.8-1.2-2.8-1.5s-2-0.4-2.9-0.4 c-1.6,0-3,0.3-4.2,1c-1.2,0.6-2.2,1.5-3.1,2.6c-0.8,1.1-1.4,2.3-1.9,3.6c-0.4,1.3-0.6,2.7-0.6,4c0,1.5,0.2,2.9,0.7,4.2 c0.5,1.4,1.2,2.6,2.1,3.6s1.9,1.9,3.1,2.5s2.5,0.9,3.9,0.9c1,0,2-0.2,3-0.5c1-0.3,2-0.9,2.9-1.6s1.6-1.7,2.2-2.9l3,1.6 c-0.6,1.4-1.5,2.6-2.7,3.6s-2.6,1.7-4.1,2.2s-3,0.8-4.5,0.8c-1.9,0-3.7-0.4-5.4-1.3c-1.6-0.8-3-2-4.2-3.4s-2.1-3-2.8-4.7 C496.5,321.1,496.2,319.4,496.2,317.6z"></path> <path class="st0" d="M525.8,332v-28.4h3.6V332H525.8z"></path> <path class="st0" d="M545.4,303.6h3L560,332h-3.8l-3.2-8.3h-12.2l-3.2,8.3h-3.8L545.4,303.6z M551.9,320.9l-5-13.1l-5.1,13.1 H551.9z"></path> <path class="st0" d="M561.4,317.6c0-1.7,0.3-3.4,0.9-5.1c0.6-1.7,1.5-3.2,2.6-4.6c1.2-1.4,2.6-2.5,4.3-3.3s3.6-1.2,5.7-1.2 c2.5,0,4.7,0.6,6.5,1.7c1.8,1.2,3.2,2.7,4,4.5l-2.8,1.8c-0.6-1.2-1.3-2.2-2.1-2.9c-0.9-0.7-1.8-1.2-2.8-1.5s-2-0.4-2.9-0.4 c-1.6,0-3,0.3-4.2,1c-1.2,0.6-2.2,1.5-3.1,2.6c-0.8,1.1-1.4,2.3-1.9,3.6c-0.4,1.3-0.6,2.7-0.6,4c0,1.5,0.2,2.9,0.7,4.2 c0.5,1.4,1.2,2.6,2.1,3.6c0.9,1,1.9,1.9,3.1,2.5c1.2,0.6,2.5,0.9,3.9,0.9c1,0,2-0.2,3-0.5s2-0.9,2.9-1.6s1.6-1.7,2.2-2.9l3,1.6 c-0.6,1.4-1.5,2.6-2.7,3.6s-2.6,1.7-4.1,2.2s-3,0.8-4.5,0.8c-1.9,0-3.7-0.4-5.4-1.3c-1.6-0.8-3-2-4.2-3.4s-2.1-3-2.8-4.7 C561.7,321.1,561.4,319.4,561.4,317.6z"></path> <path class="st0" d="M591.1,332v-28.4h3.6V332H591.1z"></path> <path class="st0" d="M613.5,332.2c-2,0-3.8-0.4-5.4-1.2c-1.6-0.8-3-1.9-4.2-3.3s-2.1-2.9-2.7-4.6s-1-3.5-1-5.3 c0-1.9,0.3-3.7,1-5.4c0.7-1.7,1.6-3.3,2.8-4.6c1.2-1.3,2.6-2.4,4.3-3.2c1.6-0.8,3.4-1.2,5.3-1.2c2,0,3.8,0.4,5.4,1.2 c1.6,0.8,3,1.9,4.2,3.3s2.1,2.9,2.7,4.6c0.6,1.7,1,3.5,1,5.2c0,1.9-0.3,3.7-1,5.4c-0.7,1.7-1.6,3.3-2.8,4.6 c-1.2,1.3-2.6,2.4-4.3,3.2C617.2,331.9,615.4,332.2,613.5,332.2z M603.8,317.8c0,1.4,0.2,2.8,0.7,4.2c0.5,1.3,1.1,2.5,2,3.6 c0.9,1,1.9,1.9,3.1,2.5c1.2,0.6,2.5,0.9,4,0.9s2.9-0.3,4.1-1c1.2-0.6,2.2-1.5,3.1-2.6c0.8-1.1,1.5-2.3,1.9-3.6 c0.4-1.3,0.7-2.7,0.7-4c0-1.4-0.2-2.8-0.7-4.2c-0.5-1.3-1.1-2.5-2-3.6s-1.9-1.9-3.1-2.5c-1.2-0.6-2.5-0.9-3.9-0.9 c-1.5,0-2.9,0.3-4.1,0.9c-1.2,0.6-2.2,1.5-3.1,2.5c-0.8,1.1-1.5,2.3-1.9,3.6C604,315.1,603.8,316.4,603.8,317.8z"></path> <path class="st0" d="M636,310.3V332h-3.6v-28.4h3l17.4,22.2v-22.2h3.6V332h-3.3L636,310.3z"></path> <path class="st0" d="M677.9,310.3V332h-3.6v-28.4h3l17.4,22.2v-22.2h3.6V332H695L677.9,310.3z"></path> <path class="st0" d="M714.3,303.6h3L729,332h-3.8l-3.2-8.3h-12.2l-3.2,8.3h-3.8L714.3,303.6z M720.9,320.9l-5-13.1l-5.1,13.1 H720.9z"></path> <path class="st0" d="M730.4,317.6c0-1.7,0.3-3.4,0.9-5.1c0.6-1.7,1.5-3.2,2.6-4.6c1.2-1.4,2.6-2.5,4.3-3.3s3.6-1.2,5.7-1.2 c2.5,0,4.7,0.6,6.5,1.7c1.8,1.2,3.2,2.7,4,4.5l-2.8,1.8c-0.6-1.2-1.3-2.2-2.1-2.9c-0.9-0.7-1.8-1.2-2.8-1.5s-2-0.4-2.9-0.4 c-1.6,0-3,0.3-4.2,1c-1.2,0.6-2.2,1.5-3.1,2.6c-0.8,1.1-1.4,2.3-1.9,3.6c-0.4,1.3-0.6,2.7-0.6,4c0,1.5,0.2,2.9,0.7,4.2 c0.5,1.4,1.2,2.6,2.1,3.6c0.9,1,1.9,1.9,3.1,2.5c1.2,0.6,2.5,0.9,3.9,0.9c1,0,2-0.2,3-0.5s2-0.9,2.9-1.6s1.6-1.7,2.2-2.9l3,1.6 c-0.6,1.4-1.5,2.6-2.7,3.6s-2.6,1.7-4.1,2.2s-3,0.8-4.5,0.8c-1.9,0-3.7-0.4-5.4-1.3c-1.6-0.8-3-2-4.2-3.4s-2.1-3-2.8-4.7 C730.7,321.1,730.4,319.4,730.4,317.6z"></path> <path class="st0" d="M760,332v-28.4h3.6V332H760z"></path> <path class="st0" d="M782.4,332.2c-2,0-3.8-0.4-5.4-1.2c-1.6-0.8-3-1.9-4.2-3.3s-2.1-2.9-2.7-4.6s-1-3.5-1-5.3 c0-1.9,0.3-3.7,1-5.4c0.7-1.7,1.6-3.3,2.8-4.6c1.2-1.3,2.6-2.4,4.3-3.2c1.6-0.8,3.4-1.2,5.3-1.2c2,0,3.8,0.4,5.4,1.2 c1.6,0.8,3,1.9,4.2,3.3s2.1,2.9,2.7,4.6c0.6,1.7,1,3.5,1,5.2c0,1.9-0.3,3.7-1,5.4c-0.7,1.7-1.6,3.3-2.8,4.6 c-1.2,1.3-2.6,2.4-4.3,3.2C786.1,331.9,784.4,332.2,782.4,332.2z M772.7,317.8c0,1.4,0.2,2.8,0.7,4.2c0.5,1.3,1.1,2.5,2,3.6 c0.9,1,1.9,1.9,3.1,2.5c1.2,0.6,2.5,0.9,4,0.9s2.9-0.3,4.1-1c1.2-0.6,2.2-1.5,3.1-2.6c0.8-1.1,1.5-2.3,1.9-3.6 c0.4-1.3,0.7-2.7,0.7-4c0-1.4-0.2-2.8-0.7-4.2c-0.5-1.3-1.1-2.5-2-3.6s-1.9-1.9-3.1-2.5c-1.2-0.6-2.5-0.9-3.9-0.9 c-1.5,0-2.9,0.3-4.1,0.9c-1.2,0.6-2.2,1.5-3.1,2.5c-0.8,1.1-1.5,2.3-1.9,3.6C772.9,315.1,772.7,316.4,772.7,317.8z"></path> <path class="st0" d="M804.9,310.3V332h-3.6v-28.4h3l17.4,22.2v-22.2h3.6V332H822L804.9,310.3z"></path> <path class="st0" d="M841.3,303.6h3L856,332h-3.8l-3.2-8.3h-12.2l-3.2,8.3h-3.8L841.3,303.6z M847.9,320.9l-5-13.1l-5.1,13.1 H847.9z"></path> <path class="st0" d="M860.3,332v-28.4h3.6v25.2h15.9v3.2L860.3,332L860.3,332z"></path> <path class="st0" d="M893.7,332v-28.4h9.9c3,0,5.6,0.6,7.6,1.9s3.6,3,4.6,5.1s1.5,4.5,1.5,7.1c0,2.9-0.6,5.4-1.7,7.5 c-1.1,2.1-2.7,3.8-4.8,5s-4.5,1.8-7.3,1.8H893.7z M913.6,317.8c0-2.1-0.4-4-1.2-5.7s-1.9-3-3.4-3.9s-3.3-1.4-5.5-1.4h-6.2v22h6.2 c2.2,0,4-0.5,5.5-1.5s2.6-2.3,3.4-4C913.2,321.7,913.6,319.9,913.6,317.8z"></path> <path class="st0" d="M942.1,328.8v3.2h-19.3v-28.4h18.9v3.2h-15.3v9.2h13.3v3h-13.3v9.8L942.1,328.8L942.1,328.8z"></path> <path class="st0" d="M977.5,328.8v3.2h-19.3v-28.4h18.9v3.2h-15.3v9.2h13.3v3h-13.3v9.8L977.5,328.8L977.5,328.8z"></path> <path class="st0" d="M999.6,309.6c-0.3-0.4-0.7-0.7-1.3-1.1c-0.5-0.3-1.1-0.7-1.8-0.9s-1.4-0.5-2.2-0.7s-1.6-0.3-2.5-0.3 c-2.2,0-3.8,0.4-4.8,1.2s-1.6,2-1.6,3.4c0,1,0.3,1.8,0.8,2.4s1.4,1.1,2.5,1.4c1.1,0.4,2.5,0.8,4.2,1.2c2,0.4,3.7,0.9,5.1,1.6 s2.5,1.4,3.3,2.5c0.8,1,1.2,2.4,1.2,4.1c0,1.4-0.3,2.5-0.8,3.5s-1.2,1.8-2.2,2.5c-0.9,0.7-2,1.1-3.3,1.4s-2.6,0.5-4.1,0.5 c-1.4,0-2.9-0.2-4.2-0.5c-1.4-0.3-2.7-0.8-3.9-1.3c-1.2-0.6-2.4-1.3-3.4-2.2l1.7-3c0.4,0.5,1,0.9,1.7,1.3s1.5,0.8,2.3,1.2 c0.9,0.4,1.8,0.7,2.8,0.9c1,0.2,2.1,0.3,3.1,0.3c2,0,3.6-0.4,4.7-1.1c1.1-0.7,1.7-1.8,1.7-3.2c0-1.1-0.3-1.9-0.9-2.6 c-0.6-0.6-1.6-1.2-2.8-1.6s-2.7-0.9-4.5-1.3c-1.9-0.5-3.5-1-4.8-1.6s-2.3-1.3-2.9-2.3c-0.7-0.9-1-2.1-1-3.6c0-1.8,0.4-3.3,1.3-4.6 s2.1-2.2,3.6-2.8c1.5-0.6,3.3-1,5.2-1c1.3,0,2.5,0.1,3.6,0.4s2.1,0.6,3.1,1.1s1.8,1.1,2.6,1.7L999.6,309.6z"></path> <path class="st0" d="M1028.3,306.8h-9.8V332h-3.6v-25.2h-9.8v-3.2h23.2V306.8z"></path> <path class="st0" d="M1044.6,332.2c-2.3,0-4.2-0.4-5.7-1.2c-1.5-0.8-2.8-1.9-3.7-3.2c-0.9-1.3-1.6-2.9-2-4.6s-0.6-3.5-0.6-5.3 v-14.4h3.6V318c0,1.4,0.1,2.7,0.4,4.1c0.3,1.3,0.7,2.5,1.4,3.5c0.6,1,1.5,1.9,2.6,2.5s2.5,0.9,4.1,0.9c1.7,0,3-0.3,4.1-0.9 s2-1.5,2.6-2.5c0.6-1.1,1.1-2.2,1.4-3.5s0.4-2.6,0.4-4v-14.4h3.6V318c0,1.9-0.2,3.7-0.7,5.5s-1.1,3.2-2.1,4.5s-2.2,2.3-3.7,3.1 S1046.7,332.2,1044.6,332.2z"></path> <path class="st0" d="M1063.5,332v-28.4h9.9c3,0,5.6,0.6,7.6,1.9s3.6,3,4.6,5.1s1.5,4.5,1.5,7.1c0,2.9-0.6,5.4-1.7,7.5 s-2.7,3.8-4.8,5c-2.1,1.2-4.5,1.8-7.3,1.8H1063.5z M1083.5,317.8c0-2.1-0.4-4-1.2-5.7c-0.8-1.7-1.9-3-3.4-3.9s-3.3-1.4-5.5-1.4 h-6.2v22h6.2c2.2,0,4-0.5,5.5-1.5s2.6-2.3,3.4-4C1083.1,321.7,1083.5,319.9,1083.5,317.8z"></path> <path class="st0" d="M1092.7,332v-28.4h3.6V332H1092.7z"></path> <path class="st0" d="M1112.2,303.6h3l11.6,28.4h-3.8l-3.2-8.3h-12.2l-3.2,8.3h-3.8L1112.2,303.6z M1118.8,320.9l-5-13.1l-5.1,13.1 H1118.8z"></path> <path class="st0" d="M1134.8,310.3V332h-3.6v-28.4h3l17.4,22.2v-22.2h3.6V332h-3.3L1134.8,310.3z"></path> <path class="st0" d="M1183,306.8h-9.8V332h-3.6v-25.2h-9.8v-3.2h23.2L1183,306.8L1183,306.8z"></path> <path class="st0" d="M1206.9,328.8v3.2h-19.3v-28.4h18.9v3.2h-15.3v9.2h13.3v3h-13.3v9.8L1206.9,328.8L1206.9,328.8z"></path> <path class="st0" d="M1229,309.6c-0.3-0.4-0.7-0.7-1.3-1.1c-0.5-0.3-1.1-0.7-1.8-0.9s-1.4-0.5-2.2-0.7c-0.8-0.2-1.6-0.3-2.5-0.3 c-2.2,0-3.8,0.4-4.8,1.2s-1.6,2-1.6,3.4c0,1,0.3,1.8,0.8,2.4s1.4,1.1,2.5,1.4c1.1,0.4,2.5,0.8,4.2,1.2c2,0.4,3.7,0.9,5.1,1.6 s2.5,1.4,3.3,2.5c0.8,1,1.2,2.4,1.2,4.1c0,1.4-0.3,2.5-0.8,3.5s-1.2,1.8-2.2,2.5c-0.9,0.7-2,1.1-3.3,1.4s-2.6,0.5-4.1,0.5 c-1.4,0-2.9-0.2-4.2-0.5c-1.4-0.3-2.7-0.8-3.9-1.3c-1.2-0.6-2.4-1.3-3.4-2.2l1.7-3c0.4,0.5,1,0.9,1.7,1.3s1.5,0.8,2.3,1.2 c0.9,0.4,1.8,0.7,2.8,0.9c1,0.2,2.1,0.3,3.1,0.3c2,0,3.6-0.4,4.7-1.1s1.7-1.8,1.7-3.2c0-1.1-0.3-1.9-0.9-2.6 c-0.6-0.6-1.6-1.2-2.8-1.6c-1.2-0.4-2.7-0.9-4.5-1.3c-1.9-0.5-3.5-1-4.8-1.6s-2.3-1.3-2.9-2.3c-0.7-0.9-1-2.1-1-3.6 c0-1.8,0.4-3.3,1.3-4.6s2.1-2.2,3.6-2.8c1.5-0.6,3.3-1,5.2-1c1.3,0,2.5,0.1,3.6,0.4s2.1,0.6,3.1,1.1s1.8,1.1,2.6,1.7L1229,309.6z"></path> <path class="st0" d="M1247.8,332v-28.4h9.9c3,0,5.6,0.6,7.6,1.9s3.6,3,4.6,5.1s1.5,4.5,1.5,7.1c0,2.9-0.6,5.4-1.7,7.5 s-2.7,3.8-4.8,5c-2.1,1.2-4.5,1.8-7.3,1.8H1247.8z M1267.7,317.8c0-2.1-0.4-4-1.2-5.7c-0.8-1.7-1.9-3-3.4-3.9s-3.3-1.4-5.5-1.4 h-6.2v22h6.2c2.2,0,4-0.5,5.5-1.5s2.6-2.3,3.4-4C1267.3,321.7,1267.7,319.9,1267.7,317.8z"></path> <path class="st0" d="M1296.3,328.8v3.2H1277v-28.4h18.9v3.2h-15.3v9.2h13.3v3h-13.3v9.8L1296.3,328.8L1296.3,328.8z"></path> <path class="st0" d="M1329,309.6c-0.3-0.4-0.7-0.7-1.3-1.1c-0.5-0.3-1.1-0.7-1.8-0.9s-1.4-0.5-2.2-0.7c-0.8-0.2-1.6-0.3-2.5-0.3 c-2.2,0-3.8,0.4-4.8,1.2s-1.6,2-1.6,3.4c0,1,0.3,1.8,0.8,2.4s1.4,1.1,2.5,1.4c1.1,0.4,2.5,0.8,4.2,1.2c2,0.4,3.7,0.9,5.1,1.6 s2.5,1.4,3.3,2.5c0.8,1,1.2,2.4,1.2,4.1c0,1.4-0.3,2.5-0.8,3.5s-1.2,1.8-2.2,2.5c-0.9,0.7-2,1.1-3.3,1.4s-2.6,0.5-4.1,0.5 c-1.4,0-2.9-0.2-4.2-0.5c-1.4-0.3-2.7-0.8-3.9-1.3c-1.2-0.6-2.4-1.3-3.4-2.2l1.7-3c0.4,0.5,1,0.9,1.7,1.3s1.5,0.8,2.3,1.2 c0.9,0.4,1.8,0.7,2.8,0.9c1,0.2,2.1,0.3,3.1,0.3c2,0,3.6-0.4,4.7-1.1s1.7-1.8,1.7-3.2c0-1.1-0.3-1.9-0.9-2.6 c-0.6-0.6-1.6-1.2-2.8-1.6c-1.2-0.4-2.7-0.9-4.5-1.3c-1.9-0.5-3.5-1-4.8-1.6s-2.3-1.3-2.9-2.3c-0.7-0.9-1-2.1-1-3.6 c0-1.8,0.4-3.3,1.3-4.6s2.1-2.2,3.6-2.8c1.5-0.6,3.3-1,5.2-1c1.3,0,2.5,0.1,3.6,0.4s2.1,0.6,3.1,1.1s1.8,1.1,2.6,1.7L1329,309.6z"></path> <path class="st0" d="M1356.5,328.8v3.2h-19.3v-28.4h18.9v3.2h-15.3v9.2h13.3v3h-13.3v9.8L1356.5,328.8L1356.5,328.8z"></path> <path class="st0" d="M1359.5,317.6c0-1.7,0.3-3.4,0.9-5.1s1.5-3.2,2.6-4.6c1.2-1.4,2.6-2.5,4.3-3.3c1.7-0.8,3.6-1.2,5.7-1.2 c2.5,0,4.7,0.6,6.5,1.7c1.8,1.2,3.2,2.7,4,4.5l-2.8,1.8c-0.6-1.2-1.3-2.2-2.1-2.9c-0.9-0.7-1.8-1.2-2.8-1.5s-2-0.4-2.9-0.4 c-1.6,0-3,0.3-4.2,1c-1.2,0.6-2.2,1.5-3.1,2.6c-0.8,1.1-1.4,2.3-1.9,3.6c-0.4,1.3-0.6,2.7-0.6,4c0,1.5,0.2,2.9,0.7,4.2 c0.5,1.4,1.2,2.6,2.1,3.6s1.9,1.9,3.1,2.5s2.5,0.9,3.9,0.9c1,0,2-0.2,3-0.5s2-0.9,2.9-1.6s1.6-1.7,2.2-2.9l3,1.6 c-0.6,1.4-1.5,2.6-2.7,3.6s-2.6,1.7-4.1,2.2s-3,0.8-4.5,0.8c-1.9,0-3.7-0.4-5.4-1.3c-1.6-0.8-3-2-4.2-3.4s-2.1-3-2.8-4.7 C1359.8,321.1,1359.5,319.4,1359.5,317.6z"></path> <path class="st0" d="M1400.8,332.2c-2.3,0-4.2-0.4-5.7-1.2c-1.5-0.8-2.8-1.9-3.7-3.2c-0.9-1.3-1.6-2.9-2-4.6s-0.6-3.5-0.6-5.3 v-14.4h3.6V318c0,1.4,0.1,2.7,0.4,4.1c0.3,1.3,0.7,2.5,1.4,3.5c0.6,1,1.5,1.9,2.6,2.5s2.5,0.9,4.1,0.9c1.7,0,3-0.3,4.1-0.9 s2-1.5,2.6-2.5c0.6-1.1,1.1-2.2,1.4-3.5s0.4-2.6,0.4-4v-14.4h3.6V318c0,1.9-0.2,3.7-0.7,5.5s-1.1,3.2-2.1,4.5s-2.2,2.3-3.7,3.1 S1403,332.2,1400.8,332.2z"></path> <path class="st0" d="M1423.4,310.3V332h-3.6v-28.4h3l17.4,22.2v-22.2h3.6V332h-3.3L1423.4,310.3z"></path> <path class="st0" d="M1451.1,332v-28.4h9.9c3,0,5.6,0.6,7.6,1.9s3.6,3,4.6,5.1s1.5,4.5,1.5,7.1c0,2.9-0.6,5.4-1.7,7.5 s-2.7,3.8-4.8,5c-2.1,1.2-4.5,1.8-7.3,1.8H1451.1z M1471.1,317.8c0-2.1-0.4-4-1.2-5.7c-0.8-1.7-1.9-3-3.4-3.9s-3.3-1.4-5.5-1.4 h-6.2v22h6.2c2.2,0,4-0.5,5.5-1.5s2.6-2.3,3.4-4C1470.7,321.7,1471.1,319.9,1471.1,317.8z"></path> <path class="st0" d="M1488,303.6h3l11.6,28.4h-3.8l-3.2-8.3h-12.2l-3.2,8.3h-3.8L1488,303.6z M1494.5,320.9l-5-13.1l-5.1,13.1 H1494.5z"></path> <path class="st0" d="M1506.9,332v-28.4h12.2c1.3,0,2.4,0.3,3.4,0.8s1.9,1.2,2.7,2.1c0.8,0.9,1.4,1.8,1.8,2.9s0.6,2.2,0.6,3.3 c0,1.3-0.2,2.6-0.7,3.7c-0.5,1.2-1.2,2.2-2.1,3s-1.9,1.4-3.1,1.7l6.9,10.9h-4.1l-6.5-10.2h-7.5V332H1506.9z M1510.5,318.6h8.6 c1,0,1.8-0.3,2.6-0.8c0.7-0.5,1.3-1.3,1.7-2.2c0.4-0.9,0.6-1.9,0.6-2.9c0-1.1-0.2-2-0.7-2.9s-1.1-1.6-1.9-2.1s-1.6-0.8-2.6-0.8 h-8.4v11.7H1510.5z"></path> <path class="st0" d="M1533.7,332v-28.4h3.6V332H1533.7z"></path> <path class="st0" d="M1553.2,303.6h3l11.6,28.4h-3.8l-3.2-8.3h-12.2l-3.2,8.3h-3.8L1553.2,303.6z M1559.8,320.9l-5-13.1l-5.1,13.1 H1559.8z"></path> </g> </g> </svg> 